<?xml version="1.0" encoding="UTF-8"?>
<svg version="1.1" viewBox="0 0 700 700" xmlns="http://www.w3.org/2000/svg" xmlns:xlink="http://www.w3.org/1999/xlink">
  <path d="m508.39 121.61c-13.121-13.121-34.395-13.121-47.516 0l-110.88 110.88-110.88-110.88c-13.121-13.121-34.395-13.121-47.516 0s-13.121 34.395 0 47.52l110.88 110.88-110.88 110.88c-13.121 13.121-13.121 34.395 0 47.52 13.121 13.121 34.395 13.121 47.52 0l110.88-110.88 110.88 110.88c13.121 13.121 34.395 13.121 47.516 0 13.121-13.121 13.121-34.395 0-47.52l-110.88-110.88 110.88-110.88c13.121-13.121 13.121-34.395 0-47.52z"/>
</svg>
