<?xml version="1.0" encoding="UTF-8"?>
<svg version="1.1" viewBox="0 0 700 700" xmlns="http://www.w3.org/2000/svg" xmlns:xlink="http://www.w3.org/1999/xlink">
 <g>
  <path d="m241.08 179.7c-7.3906-7.3906-19.375-7.3906-26.77 0l-79.852 79.914c-11.258 11.258-11.258 29.512 0 40.77l79.91 79.91c7.3906 7.3906 19.375 7.3906 26.77 0 7.3906-7.3906 7.3906-19.375 0-26.77l-73.586-73.527 73.527-73.527c7.3945-7.3945 7.3945-19.375 0-26.77z"/>
  <path d="m565.54 259.62-79.91-79.914c-7.3906-7.3906-19.375-7.3906-26.77 0-7.3906 7.3906-7.3906 19.375 0 26.77l73.586 73.527-73.527 73.527c-7.3906 7.3906-7.3906 19.375 0 26.77 7.3906 7.3906 19.375 7.3906 26.77 0l79.91-79.91c11.199-11.258 11.199-29.516-0.058593-40.77z"/>
  <path d="m413.34 127.12c-9.6328-3.9766-20.719 0.55859-24.695 10.246l-112.23 270.82c-3.9766 9.6328 0.55859 20.719 10.246 24.695 9.6328 3.9766 20.719-0.55859 24.695-10.246l112.17-270.82c4.0352-9.6328-0.55469-20.719-10.188-24.695z"/>
 </g>
</svg>
