<?xml version="1.0" encoding="UTF-8"?>
<svg version="1.1" viewBox="0 0 700 700" xmlns="http://www.w3.org/2000/svg">
 <g>
  <path d="m554.37 63.051c-21.848-21.848-57.273-21.848-79.117 0l-197.07 197.07c-3.2578 3.2578-5.4766 7.4062-6.3789 11.922l-14.676 73.379c-1.5312 7.6484 0.86328 15.559 6.3789 21.074 5.5195 5.5156 13.426 7.9102 21.078 6.3789l73.375-14.676c4.5195-0.90234 8.668-3.1211 11.926-6.3789l197.07-197.07c21.848-21.848 21.848-57.273 0-79.121z"/>
  <path d="m186.67 140c-12.887 0-23.336 10.445-23.336 23.332v280c0 12.887 10.449 23.336 23.336 23.336h280c12.887 0 23.332-10.449 23.332-23.336v-140h46.668v140c0 38.664-31.34 70-70 70h-280c-38.66 0-70-31.336-70-70v-280c0-38.66 31.34-70 70-70h140v46.668z"/>
 </g>
</svg>
