<?xml version="1.0" encoding="UTF-8"?>
<svg version="1.1" viewBox="0 0 700 700" xmlns="http://www.w3.org/2000/svg">
 <path d="m457.14 41.457c-18.199 0-33.133 14.926-33.133 33.133v32.738l-318.98 0.003906c-2.3203-0.011719-4.5547 0.90625-6.1992 2.543-1.6484 1.6367-2.5781 3.8633-2.582 6.1875-0.007812 2.332 0.91406 4.5703 2.5625 6.2188 1.6484 1.6523 3.8867 2.5742 6.2188 2.5625h318.98v32.738c0 18.207 14.934 33.133 33.133 33.133h58.184c18.199 0 33.133-14.926 33.133-33.133v-32.738h46.496-0.003906c2.3359 0.015625 4.5781-0.90625 6.2305-2.5547 1.6562-1.6484 2.5781-3.8906 2.5703-6.2266-0.003906-2.3281-0.93359-4.5547-2.5859-6.1953-1.6523-1.6367-3.8867-2.5508-6.2148-2.5352h-46.496v-32.738c0-18.207-14.934-33.133-33.133-33.133zm-221.06 180.19c-18.199 0-33.062 14.996-33.062 33.199v32.672h-97.98l-0.003906 0.003906c-2.332-0.011719-4.5703 0.91406-6.2188 2.5625-1.6484 1.6484-2.5703 3.8867-2.5625 6.2188 0.007812 2.3203 0.94141 4.543 2.5859 6.1758 1.6484 1.6367 3.875 2.5469 6.1953 2.5391h97.98v32.758c0 18.207 14.867 33.133 33.062 33.133h58.184c18.199 0 33.133-14.926 33.133-33.133l0.003906-32.758h267.55c2.3242 0.015625 4.5586-0.89844 6.207-2.5312 1.6523-1.6367 2.5859-3.8594 2.5938-6.1836 0.007812-2.3359-0.91406-4.5781-2.5703-6.2266-1.6523-1.6484-3.8945-2.5703-6.2305-2.5547h-267.55v-32.672c0-18.207-14.934-33.199-33.133-33.199zm221.06 147.64c-18.199 0-33.133 14.926-33.133 33.133v32.738l-318.98 0.003906c-2.332-0.011719-4.5703 0.91016-6.2188 2.5625-1.6484 1.6484-2.5703 3.8867-2.5625 6.2188 0.007812 2.3203 0.94141 4.543 2.5859 6.1758 1.6484 1.6367 3.875 2.5469 6.1953 2.5391h318.98v32.758c0 18.207 14.934 33.133 33.133 33.133h58.184c18.199 0 33.133-14.926 33.133-33.133l-0.003906-32.758h46.496c2.3242 0.015625 4.5586-0.89844 6.207-2.5312 1.6523-1.6367 2.5859-3.8594 2.5938-6.1836 0.007812-2.3359-0.91406-4.5781-2.5703-6.2266-1.6523-1.6484-3.8945-2.5703-6.2305-2.5547h-46.496v-32.738c0-18.207-14.934-33.133-33.133-33.133z"/>
</svg>